<svg width="160" height="160" viewBox="0 0 160 160" fill="none" xmlns="http://www.w3.org/2000/svg">
<g clip-path="url(#clip0_232_838)">
<path d="M45.826 38.9979C62.3748 11.1714 94.7777 6.97822 117.423 29.4439C124.993 36.9537 132.616 44.4154 140.006 52.0997C155.653 68.3693 156.283 94.6799 141.113 111.075C140.973 109.478 140.773 108.304 140.781 107.131C140.892 91.1787 135.289 77.5067 124.19 66.1378C116.634 58.3975 108.881 50.8485 101.183 43.2465C92.093 34.2687 78.0031 33.967 69.2665 42.5229C60.2328 51.3697 59.7872 64.9596 68.6076 74.3762C75.771 82.0239 83.3388 89.2933 90.7406 96.7172C96.2974 102.291 96.9236 108.896 92.2907 113.368C87.5193 117.974 81.3786 117.321 75.6341 111.591C69.0289 105.001 62.4192 98.4159 55.8277 91.8126C40.4078 76.3649 37.1062 59.2979 45.826 38.9979Z" fill="#492228 "/>
<path d="M22.3089 62.4434C24.2962 59.3399 26.1025 56.5631 28.5685 52.7721C28.7909 55.0967 29.0202 56.2786 28.9991 57.456C28.708 73.6303 34.466 87.3701 45.7564 98.8183C53.4593 106.629 61.2236 114.383 69.1061 122.012C77.933 130.554 91.6707 130.677 100.329 122.481C109.328 113.964 110.298 100.307 101.875 91.0178C94.2903 82.6529 86.0082 74.92 78.0293 66.9127C74.6795 63.551 73.3709 59.627 75.12 55.086C76.6211 51.1889 79.6483 48.4272 83.7617 48.6475C86.8129 48.8109 90.4533 49.9887 92.6464 52.004C100.594 59.3074 108.121 67.0781 115.663 74.8121C133.123 92.7154 132.997 119.953 115.468 137.105C98.142 154.059 71.0238 153.793 53.4467 136.435C46.1151 129.194 38.8927 121.843 31.627 114.536C16.9546 99.7809 13.6995 82.0285 22.3089 62.4434Z" fill="#040404"/>
</g>
<defs>
<clipPath id="clip0_232_838">
<rect width="160" height="160" fill="white"/>
</clipPath>
</defs>
</svg>
